<svg width="36" height="36" viewBox="0 0 36 36" fill="none" xmlns="http://www.w3.org/2000/svg">
<g id="basil:twitter-outline">
<path id="Vector" fill-rule="evenodd" clip-rule="evenodd" d="M22.531 5.0145C23.2945 4.884 24.148 4.8405 24.952 4.977C26.3841 5.2189 27.7111 5.88394 28.762 6.8865C29.446 6.9015 30.1195 6.7665 30.715 6.5745C31.2905 6.3868 31.843 6.1347 32.362 5.823L32.3755 5.814C32.5915 5.67008 32.8506 5.60528 33.1089 5.63058C33.3673 5.65588 33.6089 5.76972 33.7929 5.95281C33.9768 6.13591 34.0919 6.37698 34.1184 6.63518C34.1449 6.89337 34.0814 7.1528 33.9385 7.3695C33.628 7.842 33.1945 8.685 32.71 9.63L32.4775 10.0815C32.2 10.6215 31.915 11.1675 31.6495 11.6355C31.483 11.9295 31.3045 12.228 31.1245 12.486V12.897C31.143 15.355 30.6717 17.792 29.7381 20.0658C28.8046 22.3397 27.4275 24.4048 25.6873 26.1408C23.947 27.8767 21.8784 29.2486 19.6023 30.1765C17.3261 31.1043 14.8879 31.5696 12.43 31.545C8.86817 31.5482 5.38129 30.5221 2.389 28.59C2.17512 28.4517 2.01452 28.2448 1.93347 28.0033C1.85242 27.7619 1.85572 27.5 1.94282 27.2607C2.02993 27.0213 2.19568 26.8186 2.41298 26.6857C2.63027 26.5528 2.88624 26.4975 3.139 26.529C5.20581 26.776 7.30057 26.4426 9.1885 25.566C8.2674 25.1473 7.4436 24.5413 6.76956 23.7867C6.09552 23.0321 5.58602 22.1453 5.2735 21.183C5.21396 20.9988 5.20296 20.8023 5.24159 20.6126C5.28022 20.4228 5.36716 20.2463 5.494 20.1L5.509 20.085C4.74758 19.4066 4.13735 18.5757 3.71793 17.6462C3.29852 16.7166 3.0793 15.7093 3.0745 14.6895V14.6115C3.07439 14.3645 3.15555 14.1244 3.30547 13.9281C3.45538 13.7318 3.66571 13.5904 3.904 13.5255C3.39607 12.512 3.13253 11.3936 3.1345 10.26C3.13365 8.97475 3.46983 7.71175 4.1095 6.597C4.20038 6.43875 4.3284 6.30499 4.4825 6.20725C4.6366 6.1095 4.81216 6.05071 4.99405 6.03595C5.17594 6.02119 5.35869 6.05089 5.52654 6.1225C5.69438 6.19411 5.84229 6.30548 5.9575 6.447C8.58129 9.6794 12.3403 11.788 16.4665 12.342C16.4307 10.9923 16.7712 9.65921 17.4499 8.492C18.1286 7.32478 19.1187 6.36948 20.3095 5.733C20.9125 5.412 21.7105 5.1555 22.5325 5.0145H22.531ZM5.614 16.3365C5.90528 17.1563 6.40441 17.8864 7.06253 18.4554C7.72066 19.0244 8.51524 19.4127 9.3685 19.5825C9.61434 19.6315 9.83677 19.7611 10.0005 19.9509C10.1642 20.1407 10.2599 20.3798 10.2723 20.6301C10.2847 20.8805 10.2132 21.1278 10.069 21.3329C9.92482 21.5379 9.71629 21.689 9.4765 21.762C9.0685 21.8865 8.65 21.972 8.2255 22.0215C8.68637 22.616 9.27454 23.0997 9.94682 23.4372C10.6191 23.7746 11.3584 23.9572 12.1105 23.9715C12.3425 23.9759 12.5674 24.0519 12.7546 24.1891C12.9417 24.3263 13.0818 24.518 13.1557 24.7379C13.2296 24.9578 13.2337 25.1953 13.1674 25.4176C13.1012 25.64 12.9678 25.8364 12.7855 25.98C11.2214 27.2107 9.40371 28.079 7.4635 28.5225C9.0698 29.0366 10.7464 29.2973 12.433 29.295H12.4465C14.6065 29.3178 16.7494 28.9099 18.75 28.0951C20.7506 27.2803 22.5687 26.075 24.0982 24.5496C25.6277 23.0241 26.8378 21.2092 27.6579 19.2108C28.478 17.2124 28.8916 15.0706 28.8745 12.9105V12.108C28.8743 11.8348 28.9734 11.5709 29.1535 11.3655C29.2585 11.247 29.4385 10.974 29.6935 10.5255C29.9335 10.1025 30.2005 9.5925 30.478 9.054L30.5275 8.955C29.744 9.13133 28.9372 9.18045 28.138 9.1005C27.8678 9.07106 27.6173 8.94478 27.433 8.745C26.6786 7.92702 25.6741 7.38255 24.577 7.197C24.0237 7.11872 23.4613 7.13139 22.912 7.2345C22.3766 7.31783 21.8568 7.48116 21.37 7.719C20.3885 8.2434 19.6088 9.07878 19.1533 10.0941C18.6978 11.1094 18.5921 12.2472 18.853 13.329C18.8941 13.4991 18.8949 13.6764 18.8554 13.8469C18.8158 14.0174 18.7371 14.1763 18.6254 14.311C18.5137 14.4457 18.3721 14.5525 18.2119 14.6229C18.0517 14.6933 17.8773 14.7253 17.7025 14.7165C13.0939 14.4834 8.73679 12.5441 5.479 9.276C5.41571 9.60067 5.38406 9.93071 5.3845 10.2615V10.2645C5.38282 11.0906 5.58545 11.9043 5.97434 12.6332C6.36324 13.362 6.92634 13.9834 7.6135 14.442C7.81529 14.5778 7.96763 14.7754 8.04768 15.0051C8.12773 15.2347 8.13118 15.4842 8.05751 15.716C7.98384 15.9478 7.83703 16.1495 7.63907 16.2909C7.44111 16.4322 7.20268 16.5056 6.9595 16.5C6.50681 16.4875 6.05631 16.4337 5.614 16.3365Z" fill="#EC3A4C"/>
</g>
</svg>
