<svg width="110" height="111" viewBox="0 0 110 111" fill="none" xmlns="http://www.w3.org/2000/svg">
<g id="emojione:flag-for-germany">
<g id="Group 11">
<path id="Vector" d="M11.8661 40.2333L11.393 41.5675H12.8086H86.0698H87.4854L87.0123 40.2333C81.5683 24.8803 66.8318 13.7634 49.4392 13.7634C32.0465 13.7634 17.3101 24.8803 11.8661 40.2333Z" fill="#3E4347" stroke="white" stroke-width="2"/>
<path id="Vector_2" d="M87.0132 66.7032L87.4813 65.3716H86.0698H12.8086H11.397L11.8652 66.7032C17.3102 82.1913 32.0504 93.1757 49.4392 93.1757C66.828 93.1757 81.5682 82.1913 87.0132 66.7032Z" fill="#FFE62E" stroke="white" stroke-width="2"/>
<path id="Vector_3" d="M12.8078 39.5676H12.1024L11.8658 40.2323C10.4034 44.3402 9.60742 48.8403 9.60742 53.4697C9.60742 58.099 10.4034 62.5992 11.8658 66.7071L12.1024 67.3717H12.8078H86.069H86.7745L87.0111 66.7071C88.4735 62.5992 89.2695 58.099 89.2695 53.4697C89.2695 48.8403 88.4735 44.3402 87.0111 40.2323L86.7745 39.5676H86.069H12.8078Z" fill="#EC3A4C" stroke="white" stroke-width="2"/>
</g>
</g>
</svg>
