<svg width="41" height="41" viewBox="0 0 41 41" fill="none" xmlns="http://www.w3.org/2000/svg">
<g id="gridicons:quote">
<path id="Vector" d="M19.1202 26.9182C19.1202 25.4149 18.7273 24.1541 17.9414 23.1308C17.3845 22.427 16.6294 21.964 15.6745 21.7437C14.7349 21.525 13.8466 21.5096 13.0436 21.6958C12.7703 20.0729 13.2145 18.3543 14.342 16.5332C15.4695 14.7139 16.9301 13.3438 18.7119 12.4281L16.011 8.54166C14.6443 9.21816 13.346 10.0757 12.1502 11.1127C10.9373 12.1497 9.86101 13.3421 8.90435 14.6899C7.94768 16.0378 7.23018 17.5599 6.76893 19.2854C6.30768 21.0108 6.17955 22.7704 6.39993 24.5812C6.68693 26.9729 7.4591 28.8862 8.71643 30.3041C9.97205 31.7408 11.5386 32.4583 13.4109 32.4583C15.0595 32.4583 16.4278 31.9629 17.5109 30.9584C18.5838 29.9744 19.1168 28.6265 19.1168 26.9131L19.1202 26.9182ZM34.707 26.9182C34.707 25.4149 34.3141 24.1541 33.5283 23.1308C32.9713 22.4133 32.2128 21.9487 31.2613 21.7351C30.3046 21.5233 29.4283 21.513 28.6305 21.6975C28.3571 20.0917 28.7842 18.3663 29.9151 16.5384C31.0426 14.7275 32.4998 13.3609 34.2816 12.4384L31.5876 8.54166C30.2209 9.21816 28.9311 10.0757 27.7268 11.1127C26.5028 12.165 25.4158 13.3668 24.4912 14.6899C23.5413 16.0395 22.8341 17.5599 22.3728 19.2854C21.9061 21.0098 21.7802 22.8086 22.0021 24.5812C22.2857 26.9729 23.0545 28.8862 24.3084 30.3041C25.5606 31.7289 27.122 32.4429 28.9943 32.4429C30.6463 32.4429 32.0147 31.9475 33.0978 30.9447C34.1689 29.9607 34.707 28.6129 34.707 26.8994V26.9182Z" fill="#EC3A4C"/>
</g>
</svg>
