<svg width="36" height="36" viewBox="0 0 36 36" fill="none" xmlns="http://www.w3.org/2000/svg">
<g id="ph:arrow-up-duotone">
<g id="Group">
<path id="Vector" opacity="0.2" d="M28.125 15.75H7.875L18 5.625L28.125 15.75Z" fill="#EC3A4C"/>
<path id="Vector_2" d="M28.9218 14.9541L18.7968 4.82906C18.6923 4.72446 18.5683 4.64149 18.4317 4.58487C18.2951 4.52826 18.1487 4.49911 18.0009 4.49911C17.853 4.49911 17.7067 4.52826 17.5701 4.58487C17.4335 4.64149 17.3094 4.72446 17.2049 4.82906L7.07995 14.9541C6.92244 15.1114 6.81515 15.3119 6.77167 15.5303C6.72818 15.7486 6.75046 15.975 6.83569 16.1806C6.92091 16.3863 7.06524 16.5621 7.25041 16.6857C7.43557 16.8093 7.65325 16.8752 7.87589 16.875H16.8759V30.375C16.8759 30.6734 16.9944 30.9595 17.2054 31.1705C17.4164 31.3815 17.7025 31.5 18.0009 31.5C18.2993 31.5 18.5854 31.3815 18.7964 31.1705C19.0074 30.9595 19.1259 30.6734 19.1259 30.375V16.875H28.1259C28.3485 16.8752 28.5662 16.8093 28.7514 16.6857C28.9365 16.5621 29.0809 16.3863 29.1661 16.1806C29.2513 15.975 29.2736 15.7486 29.2301 15.5303C29.1866 15.3119 29.0793 15.1114 28.9218 14.9541ZM10.5914 14.625L18.0009 7.21547L25.4104 14.625H10.5914Z" fill="#EC3A4C"/>
</g>
</g>
</svg>
