<svg width="24" height="24" viewBox="0 0 24 24" fill="none" xmlns="http://www.w3.org/2000/svg">
<g id="ph:read-cv-logo-duotone">
<g id="Group">
<path id="Vector" opacity="0.2" d="M18.9796 3.98654L18.9186 20.0738C18.9182 20.1723 18.8984 20.2698 18.8603 20.3606C18.8223 20.4515 18.7667 20.534 18.6967 20.6034C18.6268 20.6727 18.5438 20.7276 18.4527 20.765C18.3615 20.8023 18.2638 20.8213 18.1653 20.8208L5.76558 20.7672C5.56681 20.7664 5.37649 20.6867 5.23644 20.5456C5.0964 20.4045 5.01808 20.2136 5.0187 20.0149L5.07974 3.92761C5.08013 3.82909 5.09993 3.73162 5.13799 3.64075C5.17606 3.54988 5.23166 3.46741 5.30161 3.39804C5.37156 3.32866 5.45449 3.27375 5.54567 3.23644C5.63685 3.19912 5.73449 3.18014 5.833 3.18057L18.2327 3.23421C18.4315 3.23503 18.6218 3.31474 18.7619 3.4558C18.9019 3.59687 18.9802 3.78777 18.9796 3.98654Z" fill="#1D1E22"/>
<path id="Vector_2" d="M18.2362 2.48407L5.83643 2.43043C5.43869 2.42894 5.05664 2.58549 4.7743 2.86564C4.49196 3.14579 4.33245 3.52661 4.33084 3.92435L4.26979 20.0116C4.2691 20.2087 4.30725 20.4039 4.38205 20.5863C4.45686 20.7686 4.56686 20.9344 4.70577 21.0742C4.84468 21.214 5.00977 21.325 5.19162 21.401C5.37346 21.4769 5.56849 21.5163 5.76556 21.5169L18.1653 21.5705C18.3625 21.5713 18.5579 21.5333 18.7403 21.4585C18.9227 21.3837 19.0886 21.2737 19.2285 21.1348C19.3684 20.9959 19.4796 20.8307 19.5556 20.6488C19.6316 20.4669 19.671 20.2717 19.6715 20.0746L19.7325 3.98734C19.7334 3.58957 19.5763 3.20775 19.2956 2.92585C19.015 2.64394 18.6339 2.48503 18.2362 2.48407ZM18.1697 20.0705L5.76901 20.0171L5.83005 3.9298L18.2298 3.98344L18.1697 20.0705ZM7.32102 6.18647C7.32205 5.98763 7.40199 5.79735 7.54327 5.65744C7.68455 5.51753 7.87561 5.43944 8.07444 5.44035L15.9759 5.47394C16.1636 5.47449 16.3444 5.54545 16.4823 5.67277C16.6203 5.8001 16.7055 5.97455 16.7211 6.16165C16.7367 6.34874 16.6815 6.53489 16.5665 6.6833C16.4516 6.83171 16.2851 6.93159 16.1 6.96322C16.0567 6.97062 16.0127 6.97436 15.9688 6.97439L8.06714 6.93988C7.86831 6.93886 7.67802 6.85892 7.53811 6.71764C7.3982 6.57635 7.32012 6.3853 7.32102 6.18647ZM7.31044 9.18674C7.31083 9.08823 7.33062 8.99075 7.36869 8.89989C7.40676 8.80902 7.46235 8.72655 7.5323 8.65717C7.60225 8.5878 7.68519 8.53289 7.77636 8.49557C7.86754 8.45826 7.96518 8.43927 8.0637 8.4397L15.9653 8.47422C16.1541 8.47332 16.3363 8.54368 16.4755 8.67124C16.6148 8.7988 16.7007 8.97417 16.7163 9.16234C16.7319 9.35052 16.6759 9.53764 16.5596 9.68635C16.4432 9.83506 16.2751 9.93442 16.0887 9.96458C16.045 9.97219 16.0007 9.97567 15.9563 9.97499L8.05487 9.9414C7.85611 9.93993 7.66607 9.85962 7.52649 9.71812C7.3869 9.57662 7.3092 9.3855 7.31044 9.18674ZM7.29877 12.1863C7.30053 11.9878 7.38085 11.7982 7.52216 11.6588C7.66346 11.5195 7.85422 11.4419 8.05266 11.4429L12.001 11.4568C12.1887 11.4573 12.3693 11.5282 12.5072 11.6555C12.6452 11.7827 12.7304 11.957 12.7461 12.144C12.7618 12.331 12.7069 12.5171 12.5921 12.6656C12.4773 12.814 12.311 12.9141 12.126 12.9459C12.0827 12.9534 12.0388 12.9571 11.9948 12.9571L8.04396 12.9398C7.84526 12.9386 7.65519 12.8585 7.51547 12.7172C7.37575 12.5759 7.29782 12.385 7.29877 12.1863Z" fill="#1D1E22"/>
</g>
</g>
</svg>
