<svg width="78" height="103" viewBox="0 0 78 103" fill="none" xmlns="http://www.w3.org/2000/svg">
<g id="1 1" clip-path="url(#clip0_2_317)">
<g id="Group">
<path id="Vector" d="M70.2354 0.0656128H8.514C4.25303 0.0656128 0.798828 3.31662 0.798828 7.32695V95.6732C0.798828 99.6835 4.25303 102.935 8.514 102.935H70.2354C74.4963 102.935 77.9505 99.6835 77.9505 95.6732V7.32695C77.9505 3.31662 74.4963 0.0656128 70.2354 0.0656128Z" fill="url(#paint0_linear_2_317)"/>
<path id="Vector_2" d="M63.0308 71.8473H63.6374C63.7653 71.8473 63.9009 71.843 64.0444 71.8344C64.1879 71.8258 64.3256 71.8086 64.4573 71.7828C64.5891 71.757 64.7084 71.7214 64.8154 71.676C64.9224 71.6306 65.0019 71.5723 65.0541 71.5011C65.0933 71.447 65.1135 71.3746 65.1148 71.2837C65.1161 71.1929 65.103 71.0934 65.0756 70.9854C65.0482 70.8774 65.0117 70.7638 64.9661 70.6447C64.9204 70.5256 64.8715 70.4102 64.8193 70.2985C64.7671 70.1867 64.7156 70.0812 64.6647 69.9817C64.6138 69.8823 64.5715 69.7982 64.5375 69.7294L65.4494 69.3058C65.5198 69.4237 65.5896 69.5655 65.6587 69.7312C65.7279 69.897 65.7886 70.0683 65.8407 70.2451C65.8929 70.4219 65.9353 70.5962 65.9679 70.7681C66.0005 70.94 66.0168 71.0922 66.0168 71.2248C66.0168 71.463 65.9738 71.6754 65.8877 71.862C65.7886 72.0781 65.649 72.2555 65.4689 72.3943C65.2889 72.533 65.075 72.6367 64.8271 72.7055C64.7515 72.7251 64.6569 72.7405 64.5434 72.7515C64.4299 72.7626 64.3145 72.7712 64.1971 72.7773C64.0797 72.7835 63.9681 72.7871 63.8625 72.7884C63.7568 72.7896 63.6753 72.7902 63.6179 72.7902H63.0152C63.0071 72.7902 62.9991 72.79 62.9912 72.7897C62.9713 72.7894 62.9493 72.789 62.9252 72.7884C62.8756 72.7871 62.8215 72.7816 62.7628 72.7718C62.7041 72.762 62.6408 72.7466 62.573 72.7258C62.5051 72.7049 62.4386 72.6748 62.3734 72.6355C62.3395 72.9449 62.2397 73.2414 62.074 73.525C61.9083 73.8086 61.699 74.0744 61.4459 74.3225C61.1928 74.5705 60.9091 74.7976 60.5947 75.0039C60.2803 75.2101 59.9574 75.3906 59.6261 75.5453L59.1878 74.6945C59.3704 74.6061 59.5537 74.5103 59.7376 74.4072C59.9216 74.304 60.097 74.1942 60.264 74.0775C60.431 73.9609 60.5869 73.8375 60.7317 73.7073C60.8765 73.5772 61.0017 73.4428 61.1074 73.304C61.213 73.1653 61.2965 73.0223 61.3578 72.8749C61.4191 72.7276 61.4498 72.5766 61.4498 72.4219C61.4498 72.4022 61.4491 72.382 61.4478 72.3611C61.4465 72.3402 61.4446 72.32 61.442 72.3003V72.304C61.4237 72.1665 61.393 72.0272 61.35 71.886C61.3069 71.7448 61.2606 71.6079 61.2111 71.4753C61.1615 71.3427 61.1119 71.2156 61.0624 71.0941C61.0128 70.9725 60.971 70.8626 60.9371 70.7644L61.8764 70.3961C61.9781 70.6834 62.074 70.9209 62.164 71.1088C62.254 71.2966 62.3447 71.4452 62.436 71.5545C62.5273 71.6637 62.6206 71.7399 62.7158 71.7828C62.811 71.8258 62.916 71.8473 63.0308 71.8473ZM63.7274 74.6282L63.0621 73.9983L63.7353 73.3685L64.4006 73.9946L63.7274 74.6282ZM65.2067 74.6208L64.5415 73.9946L65.2146 73.3611L65.8799 73.991L65.2067 74.6208ZM64.4749 74.4808L65.0854 75.0554L64.471 75.6337L63.8605 75.0591L64.4749 74.4808ZM56.0805 71.3427C56.1796 71.4016 56.299 71.4618 56.4386 71.5232C56.5781 71.5845 56.7229 71.6404 56.873 71.6907C57.023 71.7411 57.1704 71.7816 57.3152 71.8123C57.46 71.843 57.5872 71.8583 57.6968 71.8583C57.762 71.8583 57.85 71.8553 57.9609 71.8491C58.0718 71.843 58.1807 71.8258 58.2877 71.7976C58.3947 71.7693 58.4873 71.7251 58.5655 71.665C58.6438 71.6048 58.6843 71.5195 58.6869 71.409C58.6895 71.3083 58.6608 71.1947 58.6008 71.0683C58.5408 70.9418 58.4599 70.8104 58.3581 70.6742C58.2564 70.5379 58.139 70.401 58.0059 70.2635C57.8729 70.126 57.7346 69.994 57.5911 69.8675C57.4476 69.7411 57.3034 69.6244 57.1586 69.5176C57.0138 69.4108 56.8788 69.3206 56.7536 69.2469L57.3367 68.4329C57.5767 68.5876 57.8135 68.7619 58.047 68.9559C58.2805 69.1499 58.4958 69.3568 58.6927 69.5765C58.8897 69.7963 59.0606 70.0253 59.2054 70.2635C59.3502 70.5017 59.4539 70.7423 59.5165 70.9854C59.5844 71.258 59.5857 71.5096 59.5204 71.7405C59.4552 71.9713 59.3378 72.1696 59.1682 72.3353C58.9986 72.5011 58.7834 72.6281 58.5225 72.7165C58.2616 72.8049 57.9694 72.8418 57.6459 72.827C57.4737 72.827 57.2989 72.8111 57.1215 72.7792C56.9441 72.7472 56.7699 72.7049 56.599 72.6521C56.4281 72.5993 56.2638 72.5379 56.1059 72.4679C55.9481 72.3979 55.8013 72.3237 55.6656 72.2451L56.0805 71.3427ZM53.8224 67.2211L54.8282 66.9117C54.9586 67.8423 55.0264 68.7128 55.0317 69.5231C55.0369 70.827 55.0173 71.8645 54.973 72.6355L53.9476 72.7828C54.0259 71.6484 54.0494 70.6981 54.0181 69.932C53.9763 68.9301 53.9111 68.0265 53.8224 67.2211ZM47.2203 71.8481C47.2307 71.8476 47.2411 71.8473 47.2516 71.8473H48.0265C48.35 71.8473 48.6794 71.8184 49.0147 71.7607C49.3499 71.703 49.6832 71.6269 50.0146 71.5324C50.3459 71.4378 50.6694 71.3292 50.9851 71.2064C51.3008 71.0836 51.5995 70.9572 51.8813 70.827C51.6569 70.7804 51.4482 70.7184 51.2551 70.641C51.0621 70.5637 50.8794 70.4882 50.7073 70.4145C50.5351 70.3408 50.3694 70.277 50.2102 70.223C50.0511 70.1689 49.8933 70.1419 49.7367 70.1419C49.6454 70.1419 49.56 70.1573 49.4804 70.188C49.4008 70.2187 49.3271 70.2573 49.2593 70.304C49.1914 70.3506 49.1308 70.4022 49.0773 70.4587C49.0238 70.5152 48.9768 70.5698 48.9364 70.6226C48.896 70.6754 48.8627 70.7227 48.8366 70.7644C48.8105 70.8061 48.7923 70.8356 48.7818 70.8528L47.9678 70.3556C48.0565 70.2082 48.1622 70.0652 48.2848 69.9265C48.4074 69.7877 48.5437 69.6637 48.6938 69.5544C48.8438 69.4452 49.0062 69.358 49.181 69.2929C49.3558 69.2279 49.541 69.1953 49.7367 69.1953C49.9376 69.1953 50.1372 69.2205 50.3355 69.2708C50.5338 69.3212 50.7301 69.3844 50.9245 69.4605C51.1188 69.5366 51.3138 69.6195 51.5095 69.7091C51.7052 69.7988 51.9028 69.8823 52.1024 69.9596C52.302 70.037 52.5035 70.102 52.7071 70.1548C52.9106 70.2076 53.1193 70.2352 53.3332 70.2377L53.251 71.188C52.8858 71.3525 52.5049 71.5268 52.1083 71.711C51.7117 71.8952 51.2969 72.0658 50.8638 72.223C50.4307 72.3801 49.978 72.5115 49.5058 72.6171C49.0336 72.7227 48.5405 72.7804 48.0265 72.7902H47.2516C47.2411 72.7902 47.2307 72.7899 47.2203 72.7894C47.21 72.7899 47.1996 72.7902 47.189 72.7902H47.1577C46.9412 72.7902 46.7429 72.773 46.5629 72.7386C46.3828 72.7043 46.2185 72.6496 46.0698 72.5747C45.9211 72.4998 45.7887 72.4041 45.6725 72.2874C45.5564 72.1708 45.4553 72.0302 45.3693 71.8657C44.6518 72.4894 43.5782 72.8013 42.1484 72.8013C41.337 72.7963 40.6633 72.7006 40.1271 72.514C39.591 72.3273 39.1964 72.0425 38.9433 71.6594C38.8442 71.5023 38.7731 71.339 38.73 71.1696C38.687 71.0001 38.6654 70.8344 38.6654 70.6723C38.6654 70.4734 38.6915 70.2819 38.7437 70.0977V70.1014C38.775 69.9811 38.8076 69.8761 38.8415 69.7865C38.8755 69.6969 38.9068 69.6214 38.9355 69.56C38.9642 69.4986 38.989 69.4507 39.0098 69.4163C39.0307 69.3819 39.045 69.3586 39.0529 69.3463L39.8082 69.792C39.7821 69.8362 39.7521 69.8841 39.7182 69.9357C39.6843 69.9872 39.6523 70.0474 39.6223 70.1161C39.5923 70.1849 39.5668 70.2659 39.546 70.3592C39.5251 70.4525 39.5147 70.5618 39.5147 70.6871C39.5147 70.773 39.5316 70.8608 39.5655 70.9504C39.5995 71.04 39.6425 71.1241 39.6947 71.2027C39.7677 71.3181 39.8786 71.4163 40.0273 71.4974C40.176 71.5784 40.3567 71.6447 40.5694 71.6963C40.782 71.7478 41.0214 71.7859 41.2875 71.8105C41.5536 71.835 41.8406 71.8473 42.1484 71.8473C42.4276 71.8473 42.6924 71.8375 42.9429 71.8178C43.1934 71.7982 43.4262 71.7669 43.6414 71.7239C43.8567 71.6809 44.0511 71.6257 44.2246 71.5581C44.3981 71.4906 44.5487 71.4077 44.6766 71.3095C44.7914 71.226 44.884 71.129 44.9544 71.0185C45.0249 70.908 45.0836 70.792 45.1305 70.6705C45.1775 70.5489 45.2166 70.4243 45.2479 70.2966C45.2792 70.1689 45.3132 70.0462 45.3497 69.9283L46.2498 70.1567C46.2159 70.2893 46.18 70.4212 46.1422 70.5526C46.1043 70.684 46.0867 70.8197 46.0893 70.9596V70.9559C46.0972 71.091 46.1219 71.2138 46.1637 71.3243C46.2054 71.4348 46.27 71.5287 46.3574 71.606C46.4448 71.6834 46.5563 71.7429 46.692 71.7847C46.8277 71.8264 46.9934 71.8473 47.189 71.8473C47.1996 71.8473 47.21 71.8476 47.2203 71.8481ZM50.3198 67.9467L49.5723 68.6502L48.821 67.943L49.5684 67.2395L50.3198 67.9467ZM42.3911 69.0554L41.7258 69.6815L41.0527 69.0517L41.718 68.4218L42.3911 69.0554ZM43.8704 69.059L43.2051 69.6889L42.532 69.0554L43.1973 68.4292L43.8704 69.059ZM35.5917 67.2211L36.5974 66.9117C36.7279 67.8423 36.7957 68.7128 36.8009 69.5231C36.8062 70.827 36.7866 71.8645 36.7422 72.6355L35.7169 72.7828C35.7952 71.6484 35.8187 70.6981 35.7873 69.932C35.7456 68.9301 35.6804 68.0265 35.5917 67.2211ZM33.0127 73.9504L32.3474 74.5766L31.6743 73.9468L32.3396 73.3169L33.0127 73.9504ZM34.492 73.9541L33.8267 74.584L33.1536 73.9504L33.8189 73.3243L34.492 73.9541ZM31.6996 71.8473H32.0343C32.1621 71.8473 32.2978 71.843 32.4413 71.8344C32.5848 71.8258 32.7224 71.8086 32.8542 71.7828C32.9859 71.757 33.1053 71.7214 33.2123 71.676C33.3192 71.6306 33.3988 71.5723 33.451 71.5011C33.4901 71.447 33.5103 71.3746 33.5117 71.2837C33.513 71.1929 33.4999 71.0934 33.4725 70.9854C33.4451 70.8774 33.4086 70.7638 33.3629 70.6447C33.3173 70.5256 33.2684 70.4102 33.2162 70.2985C33.164 70.1867 33.1125 70.0812 33.0616 69.9817C33.0107 69.8823 32.9683 69.7982 32.9344 69.7294L33.8463 69.3058C33.9167 69.4237 33.9865 69.5655 34.0556 69.7312C34.1248 69.897 34.1854 70.0683 34.2376 70.2451C34.2898 70.4219 34.3322 70.5962 34.3648 70.7681C34.3974 70.94 34.4137 71.0922 34.4137 71.2248C34.4137 71.463 34.3707 71.6754 34.2846 71.862C34.1854 72.0781 34.0458 72.2555 33.8658 72.3943C33.6858 72.533 33.4719 72.6367 33.224 72.7055C33.1483 72.7251 33.0538 72.7405 32.9403 72.7515C32.8268 72.7626 32.7113 72.7712 32.5939 72.7773C32.4765 72.7835 32.365 72.7871 32.2593 72.7884C32.1537 72.7896 32.0721 72.7902 32.0147 72.7902H31.4121C31.3441 72.7902 31.281 72.7788 31.2228 72.7559C31.012 72.7135 30.8481 72.6316 30.7311 72.5103L30.6489 72.4256L30.5667 72.5066C30.3737 72.6858 30.1284 72.7755 29.831 72.7755C29.6745 72.7755 29.4944 72.7436 29.2909 72.6797C29.1266 72.6306 28.9518 72.5618 28.7665 72.4734C28.5552 72.3728 28.3713 72.2721 28.2147 72.1714C28.1417 72.2746 28.0295 72.3789 27.8782 72.4845C27.5729 72.6932 27.2272 72.7976 26.8411 72.7976C26.8089 72.7976 26.7778 72.795 26.7478 72.79C26.4639 72.7861 26.2041 72.7346 25.9684 72.6355C25.971 72.8393 25.9527 73.048 25.9136 73.2617C25.8745 73.4753 25.8105 73.6803 25.7218 73.8768C25.6331 74.0732 25.519 74.2555 25.3794 74.4237C25.2398 74.5919 25.0709 74.7325 24.8726 74.8455H24.8765C24.7539 74.9241 24.6222 74.9916 24.4813 75.0481C24.3404 75.1045 24.191 75.1512 24.0332 75.188C23.8753 75.2249 23.709 75.2537 23.5342 75.2746C23.3594 75.2955 23.1742 75.3108 22.9785 75.3206C22.5428 75.3206 22.169 75.2715 21.8573 75.1733C21.5455 75.0751 21.2748 74.9339 21.0452 74.7497C20.7687 74.5115 20.5626 74.231 20.4269 73.9081C20.2912 73.5852 20.2234 73.2445 20.2234 72.886C20.2234 72.6797 20.2377 72.4851 20.2664 72.3022C20.2951 72.1192 20.3382 71.9394 20.3956 71.7626C20.453 71.5858 20.526 71.4053 20.6147 71.2211C20.7034 71.037 20.8078 70.8393 20.9278 70.6281L21.7496 71.188C21.6688 71.3255 21.5892 71.4759 21.5109 71.6392C21.4327 71.8025 21.3642 71.9719 21.3055 72.1475C21.2468 72.323 21.2037 72.4992 21.1763 72.676C21.1489 72.8528 21.147 73.0223 21.1704 73.1843C21.1809 73.2433 21.1998 73.3138 21.2272 73.3961C21.2546 73.4784 21.295 73.5637 21.3485 73.6521C21.402 73.7405 21.4698 73.8283 21.552 73.9155C21.6342 74.0026 21.734 74.08 21.8514 74.1475C21.9688 74.215 22.1064 74.2703 22.2643 74.3132C22.4221 74.3562 22.6041 74.3777 22.8102 74.3777H22.8767C22.8898 74.3777 22.9028 74.3765 22.9159 74.374C23.1768 74.3617 23.4194 74.3372 23.6438 74.3004C23.8682 74.2635 24.0697 74.2064 24.2484 74.1291C24.4271 74.0517 24.5804 73.9511 24.7082 73.8271C24.8361 73.703 24.9352 73.549 25.0057 73.3648C25.0709 73.1929 25.0976 73.0106 25.0859 72.8178C25.0742 72.6251 25.035 72.4243 24.9685 72.2156C24.902 72.0069 24.8152 71.7908 24.7082 71.5674C24.6013 71.3439 24.4865 71.1168 24.3639 70.8859L25.2327 70.3666L25.5692 70.9743C25.6866 71.1929 25.8001 71.3611 25.9097 71.479C26.0193 71.5968 26.1249 71.6834 26.2267 71.7386C26.3284 71.7939 26.4256 71.8258 26.5182 71.8344C26.6109 71.843 26.6989 71.8473 26.7824 71.8473C26.8046 71.8473 26.8264 71.8485 26.8477 71.8509C27.1477 71.849 27.4155 71.7165 27.6512 71.4532C27.7425 71.35 27.8351 71.2211 27.9291 71.0664C27.9865 70.9682 28.0608 70.8307 28.1521 70.6539L28.25 70.4697C28.4065 70.1775 28.5748 69.9565 28.7548 69.8067C28.9661 69.6299 29.2205 69.5415 29.5179 69.5415C29.8754 69.5415 30.1897 69.6533 30.4611 69.8767C30.7689 70.1321 30.945 70.482 30.9894 70.9265V70.9596L30.9933 70.9707V70.978C30.9959 70.9854 30.9972 70.994 30.9972 71.0038V71.0222C30.9972 71.0296 30.9985 71.0382 31.0011 71.048C31.0038 71.075 31.0064 71.1033 31.009 71.1327C31.0194 71.2285 31.0351 71.3157 31.0559 71.3942C31.1316 71.6889 31.3129 71.8375 31.5999 71.8399H31.6077C31.6395 71.8399 31.6701 71.8424 31.6996 71.8473ZM29.9641 71.8989C30.1545 71.8473 30.255 71.6963 30.2654 71.4458C30.2758 71.2322 30.2315 71.0419 30.1323 70.8749C30.0463 70.73 29.9354 70.6171 29.7997 70.536C29.6562 70.4525 29.514 70.4243 29.3731 70.4513C29.287 70.4685 29.1618 70.6306 28.9974 70.9375L28.8565 71.2027C28.8409 71.2346 28.8265 71.2641 28.8135 71.2911C28.8005 71.3132 28.7939 71.3255 28.7939 71.3279L28.7548 71.4163C29.3601 71.7429 29.741 71.9062 29.8975 71.9062C29.9236 71.9062 29.9458 71.9038 29.9641 71.8989ZM23.8629 70.5655L23.1155 71.269L22.3641 70.5618L23.1115 69.8583L23.8629 70.5655ZM16.3153 71.8473H16.7974C16.907 71.8473 17.0153 71.843 17.1222 71.8344C17.2292 71.8258 17.3296 71.808 17.4236 71.781C17.5175 71.754 17.6003 71.7159 17.6721 71.6668C17.7438 71.6177 17.7993 71.5539 17.8384 71.4753C17.8671 71.4213 17.8814 71.3402 17.8814 71.2322C17.8814 71.1683 17.8677 71.0787 17.8403 70.9633C17.813 70.8479 17.7751 70.7202 17.7269 70.5802C17.6786 70.4403 17.6225 70.2954 17.5586 70.1456C17.4947 69.9958 17.4275 69.8559 17.357 69.7257L18.261 69.3058C18.3263 69.4458 18.3915 69.5943 18.4567 69.7515C18.5219 69.9087 18.58 70.0701 18.6309 70.2358C18.6817 70.4016 18.7228 70.568 18.7541 70.7349C18.7855 70.9019 18.8011 71.0652 18.8011 71.2248C18.8011 71.463 18.7581 71.6754 18.672 71.862C18.5728 72.0781 18.4332 72.2555 18.2532 72.3943C18.0732 72.533 17.8593 72.6367 17.6114 72.7055C17.4627 72.7448 17.3185 72.7687 17.179 72.7773C17.0394 72.7859 16.9096 72.7902 16.7896 72.7902H16.2182C16.2105 72.7902 16.2029 72.7901 16.1954 72.7898C15.9175 72.7855 15.6772 72.7507 15.4746 72.6852C15.2581 72.6153 15.0716 72.509 14.915 72.3666C14.8211 72.2782 14.7487 72.1831 14.6978 72.0812C14.6469 71.9793 14.6098 71.8798 14.5863 71.7828C14.5628 71.6858 14.5491 71.5938 14.5452 71.5066C14.5413 71.4194 14.5393 71.3439 14.5393 71.2801C14.5419 71.2015 14.5452 71.0713 14.5491 70.8896C14.553 70.7079 14.555 70.4882 14.555 70.2303C14.555 70.0756 14.5543 69.9105 14.553 69.7349C14.5517 69.5593 14.5498 69.3807 14.5471 69.199C14.5445 69.0173 14.54 68.835 14.5334 68.652C14.5269 68.4691 14.5178 68.2929 14.5061 68.1235C14.4943 67.9541 14.48 67.7951 14.463 67.6465C14.446 67.4979 14.4258 67.366 14.4023 67.2505L15.3846 66.9743C15.4133 67.1167 15.4381 67.2886 15.459 67.49C15.4799 67.6913 15.4968 67.9056 15.5099 68.1327C15.5229 68.3598 15.5333 68.5919 15.5412 68.8288C15.549 69.0658 15.5529 69.2911 15.5529 69.5047C15.5529 69.5686 15.5536 69.6361 15.5549 69.7073C15.5562 69.7785 15.5575 69.8491 15.5588 69.9191C15.5601 69.9891 15.5607 70.0572 15.5607 70.1235V70.304C15.5607 70.3973 15.5601 70.4851 15.5588 70.5673C15.5575 70.6496 15.5562 70.7288 15.5549 70.8049C15.5536 70.881 15.5523 70.9559 15.551 71.0296C15.5496 71.1033 15.549 71.1782 15.549 71.2543C15.5464 71.3476 15.549 71.4354 15.5568 71.5176C15.5647 71.5999 15.5907 71.6607 15.6351 71.7C15.729 71.7933 15.9234 71.8411 16.2182 71.8436H16.2534C16.2744 71.8436 16.295 71.8448 16.3153 71.8473ZM18.1436 74.0646L17.3962 74.7681L16.6448 74.0609L17.3923 73.3574L18.1436 74.0646Z" fill="white"/>
<path id="Vector_3" d="M63.0308 71.8473H63.6374C63.7653 71.8473 63.9009 71.843 64.0444 71.8344C64.1879 71.8258 64.3256 71.8086 64.4573 71.7828C64.5891 71.757 64.7084 71.7214 64.8154 71.676C64.9224 71.6306 65.0019 71.5723 65.0541 71.5011C65.0933 71.447 65.1135 71.3746 65.1148 71.2837C65.1161 71.1929 65.103 71.0934 65.0756 70.9854C65.0482 70.8774 65.0117 70.7638 64.9661 70.6447C64.9204 70.5256 64.8715 70.4102 64.8193 70.2985C64.7671 70.1867 64.7156 70.0812 64.6647 69.9817C64.6138 69.8823 64.5715 69.7982 64.5375 69.7294L65.4494 69.3058C65.5198 69.4237 65.5896 69.5655 65.6587 69.7312C65.7279 69.897 65.7886 70.0683 65.8407 70.2451C65.8929 70.4219 65.9353 70.5962 65.9679 70.7681C66.0005 70.94 66.0168 71.0922 66.0168 71.2248C66.0168 71.463 65.9738 71.6754 65.8877 71.862C65.7886 72.0781 65.649 72.2555 65.4689 72.3943C65.2889 72.533 65.075 72.6367 64.8271 72.7055C64.7515 72.7251 64.6569 72.7405 64.5434 72.7515C64.4299 72.7626 64.3145 72.7712 64.1971 72.7773C64.0797 72.7835 63.9681 72.7871 63.8625 72.7884C63.7568 72.7896 63.6753 72.7902 63.6179 72.7902H63.0152C63.0071 72.7902 62.9991 72.79 62.9912 72.7897C62.9713 72.7894 62.9493 72.789 62.9252 72.7884C62.8756 72.7871 62.8215 72.7816 62.7628 72.7718C62.7041 72.762 62.6408 72.7466 62.573 72.7258C62.5051 72.7049 62.4386 72.6748 62.3734 72.6355C62.3395 72.9449 62.2397 73.2414 62.074 73.525C61.9083 73.8086 61.699 74.0744 61.4459 74.3225C61.1928 74.5705 60.9091 74.7976 60.5947 75.0039C60.2803 75.2101 59.9574 75.3906 59.6261 75.5453L59.1878 74.6945C59.3704 74.6061 59.5537 74.5103 59.7376 74.4072C59.9216 74.304 60.097 74.1942 60.264 74.0775C60.431 73.9609 60.5869 73.8375 60.7317 73.7073C60.8765 73.5772 61.0017 73.4428 61.1074 73.304C61.213 73.1653 61.2965 73.0223 61.3578 72.8749C61.4191 72.7276 61.4498 72.5766 61.4498 72.4219C61.4498 72.4022 61.4491 72.382 61.4478 72.3611C61.4465 72.3402 61.4446 72.32 61.442 72.3003V72.304C61.4237 72.1665 61.393 72.0272 61.35 71.886C61.3069 71.7448 61.2606 71.6079 61.2111 71.4753C61.1615 71.3427 61.1119 71.2156 61.0624 71.0941C61.0128 70.9725 60.971 70.8626 60.9371 70.7644L61.8764 70.3961C61.9781 70.6834 62.074 70.9209 62.164 71.1088C62.254 71.2966 62.3447 71.4452 62.436 71.5545C62.5273 71.6637 62.6206 71.7399 62.7158 71.7828C62.811 71.8258 62.916 71.8473 63.0308 71.8473ZM63.7274 74.6282L63.0621 73.9983L63.7353 73.3685L64.4006 73.9946L63.7274 74.6282ZM65.2067 74.6208L64.5415 73.9946L65.2146 73.3611L65.8799 73.991L65.2067 74.6208ZM64.4749 74.4808L65.0854 75.0554L64.471 75.6337L63.8605 75.0591L64.4749 74.4808ZM56.0805 71.3427C56.1796 71.4016 56.299 71.4618 56.4386 71.5232C56.5781 71.5845 56.7229 71.6404 56.873 71.6907C57.023 71.7411 57.1704 71.7816 57.3152 71.8123C57.46 71.843 57.5872 71.8583 57.6968 71.8583C57.762 71.8583 57.85 71.8553 57.9609 71.8491C58.0718 71.843 58.1807 71.8258 58.2877 71.7976C58.3947 71.7693 58.4873 71.7251 58.5655 71.665C58.6438 71.6048 58.6843 71.5195 58.6869 71.409C58.6895 71.3083 58.6608 71.1947 58.6008 71.0683C58.5408 70.9418 58.4599 70.8104 58.3581 70.6742C58.2564 70.5379 58.139 70.401 58.0059 70.2635C57.8729 70.126 57.7346 69.994 57.5911 69.8675C57.4476 69.7411 57.3034 69.6244 57.1586 69.5176C57.0138 69.4108 56.8788 69.3206 56.7536 69.2469L57.3367 68.4329C57.5767 68.5876 57.8135 68.7619 58.047 68.9559C58.2805 69.1499 58.4958 69.3568 58.6927 69.5765C58.8897 69.7963 59.0606 70.0253 59.2054 70.2635C59.3502 70.5017 59.4539 70.7423 59.5165 70.9854C59.5844 71.258 59.5857 71.5096 59.5204 71.7405C59.4552 71.9713 59.3378 72.1696 59.1682 72.3353C58.9986 72.5011 58.7834 72.6281 58.5225 72.7165C58.2616 72.8049 57.9694 72.8418 57.6459 72.827C57.4737 72.827 57.2989 72.8111 57.1215 72.7792C56.9441 72.7472 56.7699 72.7049 56.599 72.6521C56.4281 72.5993 56.2638 72.5379 56.1059 72.4679C55.9481 72.3979 55.8013 72.3237 55.6656 72.2451L56.0805 71.3427ZM53.8224 67.2211L54.8282 66.9117C54.9586 67.8423 55.0264 68.7128 55.0317 69.5231C55.0369 70.827 55.0173 71.8645 54.973 72.6355L53.9476 72.7828C54.0259 71.6484 54.0494 70.6981 54.0181 69.932C53.9763 68.9301 53.9111 68.0265 53.8224 67.2211ZM47.2203 71.8481C47.2307 71.8476 47.2411 71.8473 47.2516 71.8473H48.0265C48.35 71.8473 48.6794 71.8184 49.0147 71.7607C49.3499 71.703 49.6832 71.6269 50.0146 71.5324C50.3459 71.4378 50.6694 71.3292 50.9851 71.2064C51.3008 71.0836 51.5995 70.9572 51.8813 70.827C51.6569 70.7804 51.4482 70.7184 51.2551 70.641C51.0621 70.5637 50.8794 70.4882 50.7073 70.4145C50.5351 70.3408 50.3694 70.277 50.2102 70.223C50.0511 70.1689 49.8933 70.1419 49.7367 70.1419C49.6454 70.1419 49.56 70.1573 49.4804 70.188C49.4008 70.2187 49.3271 70.2573 49.2593 70.304C49.1914 70.3506 49.1308 70.4022 49.0773 70.4587C49.0238 70.5152 48.9768 70.5698 48.9364 70.6226C48.896 70.6754 48.8627 70.7227 48.8366 70.7644C48.8105 70.8061 48.7923 70.8356 48.7818 70.8528L47.9678 70.3556C48.0565 70.2082 48.1622 70.0652 48.2848 69.9265C48.4074 69.7877 48.5437 69.6637 48.6938 69.5544C48.8438 69.4452 49.0062 69.358 49.181 69.2929C49.3558 69.2279 49.541 69.1953 49.7367 69.1953C49.9376 69.1953 50.1372 69.2205 50.3355 69.2708C50.5338 69.3212 50.7301 69.3844 50.9245 69.4605C51.1188 69.5366 51.3138 69.6195 51.5095 69.7091C51.7052 69.7988 51.9028 69.8823 52.1024 69.9596C52.302 70.037 52.5035 70.102 52.7071 70.1548C52.9106 70.2076 53.1193 70.2352 53.3332 70.2377L53.251 71.188C52.8858 71.3525 52.5049 71.5268 52.1083 71.711C51.7117 71.8952 51.2969 72.0658 50.8638 72.223C50.4307 72.3801 49.978 72.5115 49.5058 72.6171C49.0336 72.7227 48.5405 72.7804 48.0265 72.7902H47.2516C47.2411 72.7902 47.2307 72.7899 47.2203 72.7894C47.21 72.7899 47.1996 72.7902 47.189 72.7902H47.1577C46.9412 72.7902 46.7429 72.773 46.5629 72.7386C46.3828 72.7043 46.2185 72.6496 46.0698 72.5747C45.9211 72.4998 45.7887 72.4041 45.6725 72.2874C45.5564 72.1708 45.4553 72.0302 45.3693 71.8657C44.6518 72.4894 43.5782 72.8013 42.1484 72.8013C41.337 72.7963 40.6633 72.7006 40.1271 72.514C39.591 72.3273 39.1964 72.0425 38.9433 71.6594C38.8442 71.5023 38.7731 71.339 38.73 71.1696C38.687 71.0001 38.6654 70.8344 38.6654 70.6723C38.6654 70.4734 38.6915 70.2819 38.7437 70.0977V70.1014C38.775 69.9811 38.8076 69.8761 38.8415 69.7865C38.8755 69.6969 38.9068 69.6214 38.9355 69.56C38.9642 69.4986 38.989 69.4507 39.0098 69.4163C39.0307 69.3819 39.045 69.3586 39.0529 69.3463L39.8082 69.792C39.7821 69.8362 39.7521 69.8841 39.7182 69.9357C39.6843 69.9872 39.6523 70.0474 39.6223 70.1161C39.5923 70.1849 39.5668 70.2659 39.546 70.3592C39.5251 70.4525 39.5147 70.5618 39.5147 70.6871C39.5147 70.773 39.5316 70.8608 39.5655 70.9504C39.5995 71.04 39.6425 71.1241 39.6947 71.2027C39.7677 71.3181 39.8786 71.4163 40.0273 71.4974C40.176 71.5784 40.3567 71.6447 40.5694 71.6963C40.782 71.7478 41.0214 71.7859 41.2875 71.8105C41.5536 71.835 41.8406 71.8473 42.1484 71.8473C42.4276 71.8473 42.6924 71.8375 42.9429 71.8178C43.1934 71.7982 43.4262 71.7669 43.6414 71.7239C43.8567 71.6809 44.0511 71.6257 44.2246 71.5581C44.3981 71.4906 44.5487 71.4077 44.6766 71.3095C44.7914 71.226 44.884 71.129 44.9544 71.0185C45.0249 70.908 45.0836 70.792 45.1305 70.6705C45.1775 70.5489 45.2166 70.4243 45.2479 70.2966C45.2792 70.1689 45.3132 70.0462 45.3497 69.9283L46.2498 70.1567C46.2159 70.2893 46.18 70.4212 46.1422 70.5526C46.1043 70.684 46.0867 70.8197 46.0893 70.9596V70.9559C46.0972 71.091 46.1219 71.2138 46.1637 71.3243C46.2054 71.4348 46.27 71.5287 46.3574 71.606C46.4448 71.6834 46.5563 71.7429 46.692 71.7847C46.8277 71.8264 46.9934 71.8473 47.189 71.8473C47.1996 71.8473 47.21 71.8476 47.2203 71.8481ZM50.3198 67.9467L49.5723 68.6502L48.821 67.943L49.5684 67.2395L50.3198 67.9467ZM42.3911 69.0554L41.7258 69.6815L41.0527 69.0517L41.718 68.4218L42.3911 69.0554ZM43.8704 69.059L43.2051 69.6889L42.532 69.0554L43.1973 68.4292L43.8704 69.059ZM35.5917 67.2211L36.5974 66.9117C36.7279 67.8423 36.7957 68.7128 36.8009 69.5231C36.8062 70.827 36.7866 71.8645 36.7422 72.6355L35.7169 72.7828C35.7952 71.6484 35.8187 70.6981 35.7873 69.932C35.7456 68.9301 35.6804 68.0265 35.5917 67.2211ZM33.0127 73.9504L32.3474 74.5766L31.6743 73.9468L32.3396 73.3169L33.0127 73.9504ZM34.492 73.9541L33.8267 74.584L33.1536 73.9504L33.8189 73.3243L34.492 73.9541ZM31.6996 71.8473H32.0343C32.1621 71.8473 32.2978 71.843 32.4413 71.8344C32.5848 71.8258 32.7224 71.8086 32.8542 71.7828C32.9859 71.757 33.1053 71.7214 33.2123 71.676C33.3192 71.6306 33.3988 71.5723 33.451 71.5011C33.4901 71.447 33.5103 71.3746 33.5117 71.2837C33.513 71.1929 33.4999 71.0934 33.4725 70.9854C33.4451 70.8774 33.4086 70.7638 33.3629 70.6447C33.3173 70.5256 33.2684 70.4102 33.2162 70.2985C33.164 70.1867 33.1125 70.0812 33.0616 69.9817C33.0107 69.8823 32.9683 69.7982 32.9344 69.7294L33.8463 69.3058C33.9167 69.4237 33.9865 69.5655 34.0556 69.7312C34.1248 69.897 34.1854 70.0683 34.2376 70.2451C34.2898 70.4219 34.3322 70.5962 34.3648 70.7681C34.3974 70.94 34.4137 71.0922 34.4137 71.2248C34.4137 71.463 34.3707 71.6754 34.2846 71.862C34.1854 72.0781 34.0458 72.2555 33.8658 72.3943C33.6858 72.533 33.4719 72.6367 33.224 72.7055C33.1483 72.7251 33.0538 72.7405 32.9403 72.7515C32.8268 72.7626 32.7113 72.7712 32.5939 72.7773C32.4765 72.7835 32.365 72.7871 32.2593 72.7884C32.1537 72.7896 32.0721 72.7902 32.0147 72.7902H31.4121C31.3441 72.7902 31.281 72.7788 31.2228 72.7559C31.012 72.7135 30.8481 72.6316 30.7311 72.5103L30.6489 72.4256L30.5667 72.5066C30.3737 72.6858 30.1284 72.7755 29.831 72.7755C29.6745 72.7755 29.4944 72.7436 29.2909 72.6797C29.1266 72.6306 28.9518 72.5618 28.7665 72.4734C28.5552 72.3728 28.3713 72.2721 28.2147 72.1714C28.1417 72.2746 28.0295 72.3789 27.8782 72.4845C27.5729 72.6932 27.2272 72.7976 26.8411 72.7976C26.8089 72.7976 26.7778 72.795 26.7478 72.79C26.4639 72.7861 26.2041 72.7346 25.9684 72.6355C25.971 72.8393 25.9527 73.048 25.9136 73.2617C25.8745 73.4753 25.8105 73.6803 25.7218 73.8768C25.6331 74.0732 25.519 74.2555 25.3794 74.4237C25.2398 74.5919 25.0709 74.7325 24.8726 74.8455H24.8765C24.7539 74.9241 24.6222 74.9916 24.4813 75.0481C24.3404 75.1045 24.191 75.1512 24.0332 75.188C23.8753 75.2249 23.709 75.2537 23.5342 75.2746C23.3594 75.2955 23.1742 75.3108 22.9785 75.3206C22.5428 75.3206 22.169 75.2715 21.8573 75.1733C21.5455 75.0751 21.2748 74.9339 21.0452 74.7497C20.7687 74.5115 20.5626 74.231 20.4269 73.9081C20.2912 73.5852 20.2234 73.2445 20.2234 72.886C20.2234 72.6797 20.2377 72.4851 20.2664 72.3022C20.2951 72.1192 20.3382 71.9394 20.3956 71.7626C20.453 71.5858 20.526 71.4053 20.6147 71.2211C20.7034 71.037 20.8078 70.8393 20.9278 70.6281L21.7496 71.188C21.6688 71.3255 21.5892 71.4759 21.5109 71.6392C21.4327 71.8025 21.3642 71.9719 21.3055 72.1475C21.2468 72.323 21.2037 72.4992 21.1763 72.676C21.1489 72.8528 21.147 73.0223 21.1704 73.1843C21.1809 73.2433 21.1998 73.3138 21.2272 73.3961C21.2546 73.4784 21.295 73.5637 21.3485 73.6521C21.402 73.7405 21.4698 73.8283 21.552 73.9155C21.6342 74.0026 21.734 74.08 21.8514 74.1475C21.9688 74.215 22.1064 74.2703 22.2643 74.3132C22.4221 74.3562 22.6041 74.3777 22.8102 74.3777H22.8767C22.8898 74.3777 22.9028 74.3765 22.9159 74.374C23.1768 74.3617 23.4194 74.3372 23.6438 74.3004C23.8682 74.2635 24.0697 74.2064 24.2484 74.1291C24.4271 74.0517 24.5804 73.9511 24.7082 73.8271C24.8361 73.703 24.9352 73.549 25.0057 73.3648C25.0709 73.1929 25.0976 73.0106 25.0859 72.8178C25.0742 72.6251 25.035 72.4243 24.9685 72.2156C24.902 72.0069 24.8152 71.7908 24.7082 71.5674C24.6013 71.3439 24.4865 71.1168 24.3639 70.8859L25.2327 70.3666L25.5692 70.9743C25.6866 71.1929 25.8001 71.3611 25.9097 71.479C26.0193 71.5968 26.1249 71.6834 26.2267 71.7386C26.3284 71.7939 26.4256 71.8258 26.5182 71.8344C26.6109 71.843 26.6989 71.8473 26.7824 71.8473C26.8046 71.8473 26.8264 71.8485 26.8477 71.8509C27.1477 71.849 27.4155 71.7165 27.6512 71.4532C27.7425 71.35 27.8351 71.2211 27.9291 71.0664C27.9865 70.9682 28.0608 70.8307 28.1521 70.6539L28.25 70.4697C28.4065 70.1775 28.5748 69.9565 28.7548 69.8067C28.9661 69.6299 29.2205 69.5415 29.5179 69.5415C29.8754 69.5415 30.1897 69.6533 30.4611 69.8767C30.7689 70.1321 30.945 70.482 30.9894 70.9265V70.9596L30.9933 70.9707V70.978C30.9959 70.9854 30.9972 70.994 30.9972 71.0038V71.0222C30.9972 71.0296 30.9985 71.0382 31.0011 71.048C31.0038 71.075 31.0064 71.1033 31.009 71.1327C31.0194 71.2285 31.0351 71.3157 31.0559 71.3942C31.1316 71.6889 31.3129 71.8375 31.5999 71.8399H31.6077C31.6395 71.8399 31.6701 71.8424 31.6996 71.8473ZM29.9641 71.8989C30.1545 71.8473 30.255 71.6963 30.2654 71.4458C30.2758 71.2322 30.2315 71.0419 30.1323 70.8749C30.0463 70.73 29.9354 70.6171 29.7997 70.536C29.6562 70.4525 29.514 70.4243 29.3731 70.4513C29.287 70.4685 29.1618 70.6306 28.9974 70.9375L28.8565 71.2027C28.8409 71.2346 28.8265 71.2641 28.8135 71.2911C28.8005 71.3132 28.7939 71.3255 28.7939 71.3279L28.7548 71.4163C29.3601 71.7429 29.741 71.9062 29.8975 71.9062C29.9236 71.9062 29.9458 71.9038 29.9641 71.8989ZM23.8629 70.5655L23.1155 71.269L22.3641 70.5618L23.1115 69.8583L23.8629 70.5655ZM16.3153 71.8473H16.7974C16.907 71.8473 17.0153 71.843 17.1222 71.8344C17.2292 71.8258 17.3296 71.808 17.4236 71.781C17.5175 71.754 17.6003 71.7159 17.6721 71.6668C17.7438 71.6177 17.7993 71.5539 17.8384 71.4753C17.8671 71.4213 17.8814 71.3402 17.8814 71.2322C17.8814 71.1683 17.8677 71.0787 17.8403 70.9633C17.813 70.8479 17.7751 70.7202 17.7269 70.5802C17.6786 70.4403 17.6225 70.2954 17.5586 70.1456C17.4947 69.9958 17.4275 69.8559 17.357 69.7257L18.261 69.3058C18.3263 69.4458 18.3915 69.5943 18.4567 69.7515C18.5219 69.9087 18.58 70.0701 18.6309 70.2358C18.6817 70.4016 18.7228 70.568 18.7541 70.7349C18.7855 70.9019 18.8011 71.0652 18.8011 71.2248C18.8011 71.463 18.7581 71.6754 18.672 71.862C18.5728 72.0781 18.4332 72.2555 18.2532 72.3943C18.0732 72.533 17.8593 72.6367 17.6114 72.7055C17.4627 72.7448 17.3185 72.7687 17.179 72.7773C17.0394 72.7859 16.9096 72.7902 16.7896 72.7902H16.2182C16.2105 72.7902 16.2029 72.7901 16.1954 72.7898C15.9175 72.7855 15.6772 72.7507 15.4746 72.6852C15.2581 72.6153 15.0716 72.509 14.915 72.3666C14.8211 72.2782 14.7487 72.1831 14.6978 72.0812C14.6469 71.9793 14.6098 71.8798 14.5863 71.7828C14.5628 71.6858 14.5491 71.5938 14.5452 71.5066C14.5413 71.4194 14.5393 71.3439 14.5393 71.2801C14.5419 71.2015 14.5452 71.0713 14.5491 70.8896C14.553 70.7079 14.555 70.4882 14.555 70.2303C14.555 70.0756 14.5543 69.9105 14.553 69.7349C14.5517 69.5593 14.5498 69.3807 14.5471 69.199C14.5445 69.0173 14.54 68.835 14.5334 68.652C14.5269 68.4691 14.5178 68.2929 14.5061 68.1235C14.4943 67.9541 14.48 67.7951 14.463 67.6465C14.446 67.4979 14.4258 67.366 14.4023 67.2505L15.3846 66.9743C15.4133 67.1167 15.4381 67.2886 15.459 67.49C15.4799 67.6913 15.4968 67.9056 15.5099 68.1327C15.5229 68.3598 15.5333 68.5919 15.5412 68.8288C15.549 69.0658 15.5529 69.2911 15.5529 69.5047C15.5529 69.5686 15.5536 69.6361 15.5549 69.7073C15.5562 69.7785 15.5575 69.8491 15.5588 69.9191C15.5601 69.9891 15.5607 70.0572 15.5607 70.1235V70.304C15.5607 70.3973 15.5601 70.4851 15.5588 70.5673C15.5575 70.6496 15.5562 70.7288 15.5549 70.8049C15.5536 70.881 15.5523 70.9559 15.551 71.0296C15.5496 71.1033 15.549 71.1782 15.549 71.2543C15.5464 71.3476 15.549 71.4354 15.5568 71.5176C15.5647 71.5999 15.5907 71.6607 15.6351 71.7C15.729 71.7933 15.9234 71.8411 16.2182 71.8436H16.2534C16.2744 71.8436 16.295 71.8448 16.3153 71.8473ZM18.1436 74.0646L17.3962 74.7681L16.6448 74.0609L17.3923 73.3574L18.1436 74.0646Z" fill="#222852"/>
<path id="Vector_4" fill-rule="evenodd" clip-rule="evenodd" d="M63.9083 83.8003C64.5624 83.8003 65.0927 84.3007 65.0927 84.9176V90.9257C65.0927 91.5426 64.5624 92.043 63.9083 92.043C63.2542 92.043 62.7239 91.5426 62.7239 90.9257V84.9176C62.7239 84.3007 63.2542 83.8003 63.9083 83.8003ZM23.7826 78.6241C23.8359 82.7885 23.8626 84.872 23.8626 84.872V87.1804C23.8626 89.8599 21.5738 92.0399 18.7606 92.0399C15.947 92.0399 13.6582 89.8599 13.6582 87.1804V85.0027C13.6582 84.3857 14.1881 83.8853 14.8426 83.8853C15.4967 83.8853 16.0269 84.3857 16.0269 85.0027V87.1804C16.0269 88.6277 17.2531 89.8055 18.7606 89.8055C20.2673 89.8055 21.4938 88.6277 21.4938 87.1804V84.9308L21.4139 78.651C21.4059 78.034 21.9297 77.5278 22.5986 77.5204C23.2463 77.5204 23.775 78.0116 23.7826 78.6241ZM47.7912 83.8003H52.9259C53.5801 83.8003 54.1103 84.3007 54.1103 84.9176C54.1103 85.5342 53.5801 86.0347 52.9259 86.0347H47.7912V86.9917C47.7912 89.775 45.3901 92.0396 42.4389 92.0396C39.4877 92.0396 37.0865 89.775 37.0865 86.9917V85.0024C37.0865 84.3855 37.6164 83.8854 38.2709 83.8854C38.9251 83.8854 39.4553 84.3855 39.4553 85.0024V86.9917C39.4553 88.5432 40.7938 89.8053 42.4389 89.8053C44.084 89.8053 45.4225 88.5432 45.4225 86.9917V83.2941C45.4225 82.6771 45.9527 82.1771 46.6069 82.1771C47.2614 82.1771 47.7912 82.6771 47.7912 83.2941V83.8003ZM28.3751 83.8003H32.6698C33.3239 83.8003 33.8541 84.3007 33.8541 84.9176C33.8541 85.5342 33.3239 86.0347 32.6698 86.0347H27.2044C27.1234 86.0347 27.0438 86.0268 26.967 86.0122C26.9461 86.0082 26.9274 85.9997 26.9069 85.9946C26.8521 85.981 26.797 85.9677 26.7455 85.9473C26.7203 85.9375 26.698 85.9225 26.6735 85.9107C26.6299 85.8899 26.5852 85.8706 26.5449 85.8451C26.5211 85.8301 26.5009 85.8104 26.4786 85.7941C26.4415 85.7666 26.4033 85.7405 26.3698 85.7095C26.3496 85.6905 26.3342 85.6684 26.3158 85.6484C26.2848 85.6148 26.252 85.5821 26.2254 85.5448C26.2092 85.5224 26.198 85.4972 26.1836 85.4738C26.1598 85.435 26.1346 85.3977 26.1159 85.3562C26.1036 85.329 26.0968 85.2995 26.087 85.2713C26.0723 85.2305 26.0557 85.1908 26.0463 85.148C26.0391 85.1164 26.0388 85.0827 26.0345 85.0505C26.0298 85.0107 26.0208 84.972 26.0204 84.9309L25.9408 78.6511C25.9329 78.0341 26.4566 77.5279 27.1255 77.5205C27.7732 77.5205 28.3016 78.0117 28.3095 78.6242L28.3751 83.8003ZM58.6631 83.8003C59.3173 83.8003 59.8475 84.3007 59.8475 84.9176V90.9257C59.8475 91.5426 59.3173 92.043 58.6631 92.043C58.009 92.043 57.4787 91.5426 57.4787 90.9257V84.9176C57.4787 84.3007 58.009 83.8003 58.6631 83.8003ZM42.4379 85.967C42.1461 85.967 41.8579 85.8549 41.6526 85.6613C41.4437 85.4642 41.3248 85.1924 41.3248 84.9173C41.3248 84.6421 41.4437 84.3703 41.6526 84.1767C42.0633 83.786 42.8125 83.7826 43.2267 84.1767C43.4321 84.3703 43.5509 84.6421 43.5509 84.9173C43.5509 85.1924 43.4321 85.4642 43.2267 85.6613C43.0178 85.8549 42.7333 85.967 42.4379 85.967ZM63.9062 82.4577C63.6144 82.4577 63.3266 82.3456 63.121 82.1519C62.9156 81.9549 62.7932 81.6831 62.7932 81.4079C62.7932 81.1327 62.9156 80.861 63.121 80.6673C63.3803 80.4227 63.7657 80.3106 64.1259 80.3785C64.1983 80.3921 64.2664 80.4125 64.3349 80.4397C64.3997 80.4669 64.4649 80.4974 64.5261 80.5348C64.5874 80.5756 64.645 80.6197 64.6951 80.6673C64.9008 80.861 65.0196 81.1327 65.0196 81.4079C65.0196 81.6865 64.9008 81.9549 64.6951 82.1519C64.645 82.1995 64.5874 82.2436 64.5261 82.281C64.4649 82.3184 64.3997 82.3523 64.3349 82.3795C64.2664 82.4033 64.1947 82.4237 64.1259 82.4373C64.0539 82.4509 63.9783 82.4577 63.9062 82.4577ZM31.0922 90.4752C31.121 90.5398 31.139 90.6043 31.1534 90.6722C31.1679 90.7402 31.1787 90.8081 31.1787 90.8761C31.1787 90.944 31.1679 91.0154 31.1534 91.0833C31.139 91.1479 31.121 91.2158 31.0922 91.2769C31.0634 91.3415 31.031 91.4027 30.9917 91.4604C30.9485 91.5182 30.9017 91.5691 30.8509 91.6201C30.8004 91.6676 30.7428 91.7118 30.6816 91.7492C30.6203 91.7865 30.5559 91.8205 30.4907 91.8477C30.4226 91.8715 30.3538 91.8919 30.2817 91.9054C30.2097 91.919 30.138 91.9258 30.0656 91.9258C29.9936 91.9258 29.9179 91.919 29.8459 91.9054C29.7778 91.8919 29.7054 91.8715 29.6409 91.8477C29.5721 91.8205 29.5077 91.7865 29.4464 91.7492C29.3852 91.7118 29.3275 91.6676 29.2768 91.6201C29.2263 91.5691 29.1795 91.5182 29.1399 91.4604C29.1006 91.4027 29.0642 91.3415 29.0354 91.2769C29.0106 91.2158 28.9886 91.1479 28.9742 91.0833C28.9598 91.0154 28.9529 90.944 28.9529 90.8761C28.9529 90.8081 28.9598 90.7402 28.9742 90.6722C28.9886 90.6043 29.0106 90.5398 29.0354 90.4752C29.0642 90.4141 29.1006 90.3529 29.1399 90.2952C29.1795 90.2374 29.2263 90.183 29.2768 90.1355C29.3275 90.0879 29.3852 90.0437 29.4464 90.003C29.5077 89.9656 29.5721 89.935 29.637 89.9079C29.7054 89.8807 29.7778 89.8603 29.8459 89.8467C29.99 89.8195 30.138 89.8195 30.2817 89.8467C30.3538 89.8603 30.4226 89.8807 30.4907 89.9079C30.5559 89.935 30.6203 89.9656 30.6816 90.003C30.7428 90.0437 30.8004 90.0879 30.8509 90.1355C30.9017 90.183 30.9485 90.2374 30.9917 90.2952C31.031 90.3529 31.0634 90.4141 31.0922 90.4752ZM50.1934 87.8828H53.3788C53.891 87.8828 54.3059 88.2745 54.3059 88.7576C54.3059 89.2407 53.891 89.632 53.3788 89.632H50.1934C49.6812 89.632 49.2662 89.2407 49.2662 88.7576C49.2662 88.2745 49.6812 87.8828 50.1934 87.8828ZM31.6575 87.5326C32.1697 87.5326 32.5847 87.9243 32.5847 88.4074C32.5847 88.8905 32.1697 89.2819 31.6575 89.2819H28.4722C27.96 89.2819 27.545 88.8905 27.545 88.4074C27.545 87.9243 27.96 87.5326 28.4722 87.5326H31.6575ZM15.0393 12.1683H29.4239C30.6412 12.1683 31.2615 13.5473 30.4071 14.3572L16.0576 27.917C15.1915 28.7378 13.705 28.1687 13.705 27.0195L13.6582 13.4597C13.6582 12.7484 14.2668 12.1683 15.0393 12.1683ZM63.7335 60.5772H49.3279C48.1098 60.5772 47.4891 59.1983 48.3441 58.3884L62.6911 44.8286C63.5578 44.0078 65.0451 44.5769 65.0451 45.726L65.092 59.2858C65.1155 59.9972 64.4947 60.5772 63.7335 60.5772ZM15.7987 48.8461L52.6377 14.1825C55.4917 11.4969 60.1107 11.4969 62.9522 14.1825C65.8062 16.868 65.8062 21.214 62.9522 23.8878L26.1131 58.5632C23.2717 61.2486 18.6402 61.2486 15.7987 58.5632C12.9447 55.8776 12.9447 51.5315 15.7987 48.8461Z" fill="#222852"/>
</g>
</g>
<defs>
<linearGradient id="paint0_linear_2_317" x1="0.798828" y1="0.0656128" x2="137.947" y2="10286.2" gradientUnits="userSpaceOnUse">
<stop stop-color="#FFEE00"/>
<stop offset="1" stop-color="#FFCE00"/>
</linearGradient>
<clipPath id="clip0_2_317">
<rect width="77.1517" height="102.869" fill="white" transform="translate(0.798828 0.0656128)"/>
</clipPath>
</defs>
</svg>
