<svg width="222" height="46" viewBox="0 0 222 46" fill="none" xmlns="http://www.w3.org/2000/svg">
<g clip-path="url(#clip0_2_431)">
<path d="M197.628 39.3548L197.627 37.9481V39.3535L197.628 39.3548ZM190.367 32.0933L188.96 32.0919L190.365 32.0919L190.367 32.0933ZM208.548 32.0654L207.141 32.0641H208.546L208.548 32.0654ZM207.166 16.5851L207.142 32.0654L209.956 32.0681L209.977 16.5877L207.166 16.5851ZM201.262 37.9428L197.624 37.9481L197.631 40.7628L201.269 40.7575L201.264 37.9441L201.262 37.9428ZM191.772 32.0959L191.796 16.6129L188.983 16.6103L188.96 32.0919L191.772 32.0959ZM194.591 9.88834L195.345 9.13395L193.356 7.14521L192.601 7.90093L194.59 9.88967L194.591 9.88834ZM203.641 9.11936L204.393 9.8711L206.381 7.88237L205.63 7.13062L203.641 9.11936ZM195.345 9.13395C196.586 7.89297 197.421 7.06301 198.123 6.52605C198.794 6.01428 199.178 5.90291 199.5 5.90158L199.496 3.08951C198.312 3.09083 197.337 3.58934 196.418 4.2907C195.53 4.96688 194.542 5.95992 193.356 7.14521L195.345 9.13395ZM205.63 7.13062C204.447 5.94799 203.463 4.95892 202.576 4.28407C201.657 3.58271 200.68 3.08818 199.496 3.08951L199.498 5.90423C199.82 5.90291 200.203 6.01295 200.87 6.52074C201.571 7.05505 202.401 7.87971 203.641 9.11936L205.63 7.13062ZM197.627 37.9481C195.873 37.9521 194.698 37.9494 193.823 37.8328C192.989 37.7227 192.642 37.5291 192.416 37.3038L190.428 39.2925C191.266 40.1304 192.306 40.4685 193.453 40.621C194.558 40.7681 195.955 40.7628 197.63 40.7615L197.627 37.9481ZM201.265 40.7562C202.938 40.7536 204.338 40.7535 205.443 40.6037C206.591 40.4473 207.63 40.1052 208.467 39.2686L206.478 37.2799C206.249 37.5093 205.899 37.7028 205.066 37.8168C204.19 37.9348 203.015 37.9401 201.262 37.9428L201.265 40.7562ZM209.977 16.5851C209.981 14.473 210.006 13.0239 209.461 11.7021L206.863 12.776C207.145 13.4588 207.17 14.2397 207.166 16.5851L209.977 16.5877L209.977 16.5851ZM204.393 9.8711C206.049 11.5271 206.58 12.0932 206.863 12.776L209.461 11.7021C208.915 10.3815 207.874 9.37524 206.381 7.88237L204.393 9.8711ZM191.796 16.6156C191.8 14.2702 191.825 13.4893 192.11 12.8038L189.513 11.7259C188.964 13.0465 188.987 14.4956 188.983 16.6103L191.796 16.6129L191.796 16.6156ZM192.601 7.90093C191.104 9.39778 190.062 10.4054 189.513 11.7259L192.109 12.8052C192.395 12.121 192.931 11.5483 194.591 9.88834L192.602 7.8996L192.601 7.90093ZM207.141 32.0641C207.14 33.4178 207.137 34.436 207.077 35.2514C207.018 36.0721 206.905 36.5533 206.759 36.8715L209.313 38.0515C209.671 37.2746 209.814 36.3942 209.882 35.4569C209.951 34.5182 209.952 33.3846 209.954 32.0694L207.141 32.0641ZM206.759 36.8715C206.691 37.0236 206.596 37.162 206.478 37.2799L208.467 39.2686C208.825 38.9107 209.103 38.5049 209.313 38.0515L206.759 36.8715ZM188.96 32.0919C188.959 33.3767 188.956 34.485 189.016 35.4091C189.077 36.3293 189.208 37.1924 189.533 37.9574L192.121 36.8543C191.979 36.5268 191.877 36.0376 191.823 35.2249C191.769 34.4161 191.771 33.4151 191.771 32.0946L188.96 32.0919ZM189.533 37.9574C189.742 38.4561 190.046 38.9095 190.428 39.2925L192.416 37.3038C192.297 37.1844 192.202 37.0465 192.121 36.8543L189.531 37.9561L189.533 37.9574Z" fill="#EC3A4C"/>
<path opacity="0.5" d="M190.358 37.4075L190.358 36.0021L190.355 35.9995L190.358 37.4075ZM190.672 26.195C191.027 26.1064 191.333 25.8833 191.526 25.5729C191.718 25.2626 191.783 24.8893 191.705 24.5322C191.628 24.1751 191.414 23.8622 191.11 23.6598C190.806 23.4574 190.435 23.3814 190.075 23.4479L190.672 26.195ZM181.269 37.194L182.673 37.1954L181.268 37.1954L181.269 37.194ZM183.974 38.2096L184.532 39.4996L183.973 38.2083L183.974 38.2096ZM187.815 37.4101L187.814 36.0034L187.814 37.4088L187.815 37.4101ZM208.78 37.4618L208.78 38.8672C208.811 38.8673 208.842 38.8665 208.873 38.8646L208.78 37.4618ZM208.854 23.4187C208.674 23.3801 208.487 23.3774 208.305 23.4108C208.124 23.4443 207.95 23.5132 207.795 23.6137C207.64 23.7141 207.506 23.8442 207.401 23.9963C207.296 24.1485 207.222 24.3199 207.184 24.5006C207.145 24.6813 207.143 24.8679 207.176 25.0496C207.209 25.2314 207.278 25.4048 207.379 25.5599C207.479 25.715 207.609 25.8489 207.761 25.9537C207.914 26.0586 208.085 26.1325 208.266 26.1711L208.854 23.4187ZM210.082 37.377L210.081 35.9703L210.034 35.9716L209.989 35.9743L210.082 37.377ZM190.073 23.4479L188.702 23.7449L189.297 26.4933L190.669 26.195L190.073 23.4479ZM188.702 23.7449C187.348 24.0379 186.254 24.2752 185.374 24.5377C184.472 24.8082 183.702 25.133 183.006 25.6487L184.686 27.9066C185.021 27.6587 185.451 27.4519 186.183 27.2318C186.936 27.009 187.905 26.7956 189.3 26.4933L188.706 23.7462L188.702 23.7449ZM182.675 37.1967C182.666 35.7075 182.688 34.2182 182.742 32.73C182.773 32.0445 182.819 31.4333 182.884 30.9361C182.952 30.4124 183.029 30.1128 183.08 29.9868L180.482 28.9129C180.283 29.3955 180.169 29.9975 180.095 30.5755C180.018 31.1827 179.965 31.8775 179.932 32.6027C179.865 34.0532 179.864 35.7171 179.863 37.1927L182.675 37.1967ZM183.009 25.6487C181.887 26.4881 181.013 27.6163 180.482 28.9129L183.08 29.9868C183.418 29.161 183.972 28.4421 184.686 27.9066L183.009 25.6487ZM183.831 39.8033L184.532 39.4996L183.414 36.9183L182.714 37.2206L183.831 39.8033ZM187.815 38.8155L190.359 38.8142L190.355 35.9995L187.814 36.0034L187.818 38.8155L187.815 38.8155ZM184.532 39.4996L184.743 39.4082L183.661 36.8122L183.414 36.9183L184.532 39.4996ZM187.814 36.0034L187.546 36.0061L187.587 38.8182C187.637 38.8155 187.69 38.8155 187.818 38.8155L187.814 36.0034ZM184.743 39.4082C185.645 39.033 186.61 38.8328 187.587 38.8182L187.546 36.0061C186.212 36.0264 184.893 36.2991 183.661 36.8122L184.743 39.4082ZM179.863 37.1927C179.862 37.6637 179.978 38.1275 180.202 38.5423C180.425 38.9571 180.748 39.3098 181.141 39.5687C181.535 39.8275 181.987 39.9844 182.456 40.0251C182.925 40.0658 183.397 39.9891 183.829 39.8019L182.714 37.2206C182.71 37.2225 182.705 37.2239 182.7 37.2245C182.7 37.2245 182.692 37.2245 182.687 37.2192L182.676 37.2086C182.676 37.2086 182.673 37.206 182.675 37.1967L179.863 37.1927ZM208.266 26.1685L209.637 26.4628L210.225 23.713L208.854 23.4187L208.266 26.1711L208.266 26.1685ZM216.223 37.1383V37.3611L219.037 37.3637L219.037 37.141L216.223 37.1383ZM209.637 26.4628C211.033 26.7611 211.999 26.9693 212.752 27.192C213.483 27.4108 213.912 27.6149 214.243 27.8602L215.918 25.601C215.222 25.0853 214.449 24.7631 213.55 24.4953C212.671 24.2341 211.579 24.0034 210.225 23.713L209.635 26.4641L209.637 26.4628ZM219.037 37.141C219.05 35.6103 219.03 34.0809 218.978 32.551C218.947 31.8271 218.899 31.1324 218.823 30.5265C218.749 29.9484 218.639 29.3451 218.44 28.8625L215.839 29.9312C215.938 30.239 216.002 30.557 216.031 30.8791C216.096 31.3763 216.14 31.9849 216.169 32.6716C216.227 34.0478 216.226 35.6455 216.223 37.1383L219.037 37.141ZM214.243 27.8602C214.937 28.3746 215.493 29.0893 215.838 29.9325L218.44 28.8625C217.912 27.5661 217.04 26.4383 215.918 25.601L214.243 27.8602ZM209.989 35.9743L208.687 36.0591L208.873 38.8646L210.174 38.781L209.989 35.9743ZM216.394 37.2643C215.396 36.8361 214.793 36.5749 214.156 36.3893L213.369 39.0886C213.801 39.2133 214.225 39.3936 215.283 39.8497L216.394 37.2643ZM210.083 38.7837C211.237 38.781 211.701 38.7837 212.146 38.8367L212.484 36.0459C211.828 35.965 211.168 35.9676 210.079 35.9716L210.083 38.7837ZM214.156 36.3893C213.609 36.2299 213.051 36.1141 212.484 36.0459L212.146 38.8367C212.56 38.8871 212.97 38.9706 213.369 39.0886L214.156 36.3893ZM216.223 37.3611C216.224 37.3406 216.229 37.3206 216.239 37.3028C216.246 37.2895 216.255 37.2781 216.267 37.2696C216.282 37.2606 216.298 37.2552 216.315 37.2537C216.342 37.2515 216.369 37.2551 216.394 37.2643L215.283 39.8497C217.069 40.6173 219.033 39.2716 219.035 37.3651L216.223 37.3611ZM208.78 36.0565L208.036 36.0551L208.034 38.8686L208.78 38.8672L208.781 36.0578L208.78 36.0565ZM190.359 38.8142L190.824 38.8129L190.824 36.0021L190.358 35.9968V38.8102L190.359 38.8142ZM200.86 33.9007C200.854 33.532 200.703 33.1803 200.441 32.9215C200.178 32.6627 199.824 32.5173 199.456 32.5168C199.087 32.5163 198.733 32.6606 198.469 32.9187C198.206 33.1768 198.054 33.528 198.048 33.8967L200.861 33.8994L200.86 33.9007ZM200.852 39.3551L200.86 33.9007L198.048 33.8967L198.04 39.3512L200.853 39.3538L200.852 39.3551ZM201.706 19.3458C201.704 19.939 201.468 20.5075 201.049 20.927C200.629 21.3464 200.061 21.5826 199.468 21.5838L199.472 24.3958C200.809 24.3935 202.091 23.8611 203.037 22.9153C203.983 21.9695 204.515 20.6873 204.518 19.3498L201.706 19.3458ZM199.468 21.5838C199.176 21.5845 198.886 21.5276 198.616 21.4162C198.346 21.3048 198.101 21.1411 197.895 20.9347C197.688 20.7282 197.524 20.4829 197.413 20.2129C197.302 19.943 197.245 19.6537 197.245 19.3617L194.433 19.3577C194.432 20.0197 194.562 20.6754 194.814 21.2872C195.067 21.899 195.438 22.4549 195.906 22.923C196.374 23.391 196.93 23.7621 197.542 24.0149C198.154 24.2676 198.81 24.3971 199.472 24.3958L199.469 21.5824L199.468 21.5838ZM197.245 19.3617C197.247 18.7685 197.483 18.1999 197.902 17.7805C198.322 17.3611 198.89 17.1249 199.483 17.1237L199.479 14.3116C198.142 14.314 196.86 14.8464 195.914 15.7922C194.968 16.738 194.436 18.0201 194.433 19.3577L197.247 19.3604L197.245 19.3617ZM199.483 17.1237C199.775 17.1229 200.065 17.1799 200.335 17.2913C200.605 17.4027 200.85 17.5663 201.056 17.7728C201.263 17.9793 201.427 18.2246 201.538 18.4945C201.649 18.7645 201.706 19.0538 201.706 19.3458L204.518 19.3498C204.519 18.6878 204.389 18.0321 204.137 17.4203C203.884 16.8085 203.513 16.2526 203.045 15.7845C202.577 15.3164 202.021 14.9454 201.409 14.6926C200.797 14.4399 200.141 14.3104 199.479 14.3116L199.483 17.1237Z" fill="#EC3A4C"/>
</g>
<path d="M6.08008 29C5.29883 29 4.57617 28.8079 3.91211 28.4238C3.25456 28.0332 2.73047 27.5091 2.33984 26.8516C1.95573 26.194 1.76367 25.4746 1.76367 24.6934V21.2363L4.39062 20.582V24.6934C4.39062 24.9993 4.46549 25.2826 4.61523 25.543C4.76497 25.8034 4.97005 26.0085 5.23047 26.1582C5.49089 26.3079 5.77409 26.3828 6.08008 26.3828H19.2051C19.5111 26.3828 19.791 26.3079 20.0449 26.1582C20.3053 26.0085 20.5104 25.8034 20.6602 25.543C20.8099 25.2826 20.8848 24.9993 20.8848 24.6934C20.8848 24.3874 20.8099 24.1074 20.6602 23.8535C20.5104 23.5931 20.3053 23.388 20.0449 23.2383C19.791 23.0885 19.5111 23.0137 19.2051 23.0137H7.14453V20.3867L15.2207 15.6211L16.5586 17.6328L11.9102 20.3965H19.2051C19.9798 20.3965 20.696 20.5885 21.3535 20.9727C22.0176 21.3568 22.5417 21.8809 22.9258 22.5449C23.3164 23.2025 23.5117 23.9186 23.5117 24.6934C23.5117 25.4681 23.3164 26.1875 22.9258 26.8516C22.5417 27.5091 22.0176 28.0332 21.3535 28.4238C20.696 28.8079 19.9798 29 19.2051 29H6.08008ZM25.1816 29C24.5957 29 24.0456 28.8828 23.5312 28.6484C23.0169 28.4141 22.571 28.0885 22.1934 27.6719L21.5391 26.3145L22.0859 24.8594L23.5117 24.6934C23.5117 24.9993 23.5866 25.2826 23.7363 25.543C23.8861 25.8034 24.0879 26.0085 24.3418 26.1582C24.6022 26.3079 24.8822 26.3828 25.1816 26.3828L25.6504 27.7012L25.1816 29ZM9.95703 16.1191L14.0586 13.707L14.5762 14.6152L10.4844 17.0371L9.95703 16.1191ZM24.7227 27.7012L25.1914 26.3828H28.7949L29.2637 27.7207L28.7949 29H25.1914L24.7227 27.7012ZM28.3359 27.7012L28.8047 26.3828H32.4082L32.877 27.7207L32.4082 29H28.8047L28.3359 27.7012ZM31.9492 27.7012L32.418 26.3828H36.0215L36.4902 27.7207L36.0215 29H32.418L31.9492 27.7012ZM35.9629 29L35.5625 27.7012L35.9922 26.3828H36.0312C36.3372 26.3828 36.6172 26.3079 36.8711 26.1582C37.125 26.0085 37.3268 25.8034 37.4766 25.543C37.6263 25.2826 37.7012 24.9993 37.7012 24.6934V21.2363L40.3379 20.582V24.6934C40.3379 25.4681 40.1426 26.1875 39.752 26.8516C39.3678 27.5091 38.8438 28.0332 38.1797 28.4238C37.5221 28.8079 36.806 29 36.0312 29H35.9629ZM38.0234 16.4316H40.2793V18.5605H38.0234V16.4316ZM42.9258 31.6562L46.9395 29H45.7676C45.1556 28.9935 44.5371 28.8014 43.9121 28.4238C43.2936 28.0462 42.7826 27.5286 42.3789 26.8711C41.9753 26.2135 41.7734 25.4941 41.7734 24.7129C41.7734 23.9382 41.9655 23.2188 42.3496 22.5547C42.7402 21.8906 43.2643 21.3665 43.9219 20.9824C44.5794 20.5918 45.2956 20.3965 46.0703 20.3965H50.3867V29.8496L44.3809 33.8438L42.9258 31.6562ZM47.7695 26.3828V23.0039H46.0703C45.7643 23.0039 45.4811 23.082 45.2207 23.2383C44.9668 23.388 44.765 23.5931 44.6152 23.8535C44.4655 24.1074 44.3906 24.3841 44.3906 24.6836C44.3906 24.9896 44.4655 25.2728 44.6152 25.5332C44.765 25.7936 44.9668 26.002 45.2207 26.1582C45.4811 26.3079 45.7643 26.3828 46.0703 26.3828H47.7695ZM57.5254 26.3828H60.1816L60.6504 27.6914L60.1816 29H57.4277L57.5254 26.3828ZM52.0273 26.3828H56.3242V24.6934C56.3242 24.3874 56.2493 24.1074 56.0996 23.8535C55.9499 23.5931 55.7448 23.388 55.4844 23.2383C55.2305 23.0885 54.9538 23.0137 54.6543 23.0137H52.3301V20.3965H54.6543C55.4355 20.3965 56.1549 20.5885 56.8125 20.9727C57.4701 21.3568 57.9909 21.8776 58.375 22.5352C58.7591 23.1927 58.9512 23.9121 58.9512 24.6934V29H52.0273V26.3828ZM59.7227 27.7012L60.1914 26.3828H63.7949L64.2637 27.7207L63.7949 29H60.1914L59.7227 27.7012ZM63.7461 29L63.3359 27.7012L63.7656 26.3828H63.8047C64.1107 26.3828 64.3906 26.3079 64.6445 26.1582C64.9049 26.0085 65.11 25.8034 65.2598 25.543C65.4095 25.2826 65.4844 24.9993 65.4844 24.6934V16.168L68.1211 15.5137V24.6934C68.1211 25.4746 67.9258 26.194 67.5352 26.8516C67.151 27.5091 66.627 28.0332 65.9629 28.4238C65.3053 28.8079 64.5859 29 63.8047 29H63.7461ZM69.791 29C69.2051 29 68.6517 28.8861 68.1309 28.6582C67.6165 28.4238 67.1706 28.1016 66.793 27.6914L66.0312 26.2461L66.6953 24.7617L68.1211 24.6934C68.1211 24.9993 68.196 25.2826 68.3457 25.543C68.4954 25.8034 68.6973 26.0085 68.9512 26.1582C69.2051 26.3079 69.485 26.3828 69.791 26.3828L70.2598 27.7012L69.791 29ZM69.332 27.7012L69.8008 26.3828H73.4043L73.873 27.7207L73.4043 29H69.8008L69.332 27.7012ZM73.375 29L72.9453 27.7012L73.3848 26.3828H73.4141C73.7201 26.3828 74 26.3079 74.2539 26.1582C74.5143 26.0085 74.7194 25.8034 74.8691 25.543C75.0254 25.2826 75.1035 24.9993 75.1035 24.6934V21.2363L77.7207 20.582V24.6934C77.7207 24.9993 77.7956 25.2826 77.9453 25.543C78.0951 25.8034 78.2969 26.0085 78.5508 26.1582C78.8112 26.3079 79.0944 26.3828 79.4004 26.3828L79.8691 27.7012L79.4004 29C78.821 29 78.2676 28.8861 77.7402 28.6582C77.2194 28.4238 76.7767 28.1016 76.4121 27.6914C76.0345 28.1016 75.5853 28.4238 75.0645 28.6582C74.5501 28.8861 74 29 73.4141 29H73.375ZM76.1973 33.0723H71.3047V30.9922H76.1973V33.0723ZM78.9414 27.7012L79.4102 26.3828H83.0137L83.4824 27.7207L83.0137 29H79.4102L78.9414 27.7012ZM82.9844 29L82.5547 27.7012L82.9941 26.3828H83.0234C83.3294 26.3828 83.6094 26.3079 83.8633 26.1582C84.1237 26.0085 84.3288 25.8034 84.4785 25.543C84.6348 25.2826 84.7129 24.9993 84.7129 24.6934V21.2363L87.3301 20.582V24.6934C87.3301 24.9993 87.4049 25.2826 87.5547 25.543C87.7044 25.8034 87.9062 26.0085 88.1602 26.1582C88.4206 26.3079 88.7038 26.3828 89.0098 26.3828L89.4785 27.7012L89.0098 29C88.4303 29 87.877 28.8861 87.3496 28.6582C86.8288 28.4238 86.3861 28.1016 86.0215 27.6914C85.6439 28.1016 85.1947 28.4238 84.6738 28.6582C84.1595 28.8861 83.6094 29 83.0234 29H82.9844ZM82.3105 31.0117H84.5664V33.1406H82.3105V31.0117ZM88.5508 27.7012L89.0195 26.3828H92.623L93.0918 27.7207L92.623 29H89.0195L88.5508 27.7012ZM92.584 29L92.1641 27.7012L92.5938 26.3828H92.6328C92.9388 26.3828 93.2188 26.3079 93.4727 26.1582C93.7331 26.0085 93.9382 25.8034 94.0879 25.543C94.2441 25.2826 94.3223 24.9993 94.3223 24.6934V21.3926H96.9395V24.9766C96.9395 25.2305 97.0013 25.4648 97.125 25.6797C97.2487 25.8945 97.418 26.0671 97.6328 26.1973C97.8477 26.321 98.0788 26.3828 98.3262 26.3828C98.5866 26.3828 98.8242 26.321 99.0391 26.1973C99.2539 26.0671 99.4232 25.8945 99.5469 25.6797C99.6706 25.4648 99.7324 25.2305 99.7324 24.9766V21.3926H102.35V24.9766C102.35 25.2305 102.411 25.4648 102.535 25.6797C102.665 25.8945 102.838 26.0671 103.053 26.1973C103.268 26.321 103.499 26.3828 103.746 26.3828C104 26.3828 104.234 26.321 104.449 26.1973C104.671 26.0671 104.843 25.8945 104.967 25.6797C105.097 25.4648 105.162 25.2305 105.162 24.9766V21.2754L107.77 20.6309V24.9766C107.77 25.6992 107.587 26.3698 107.223 26.9883C106.865 27.6068 106.376 28.0983 105.758 28.4629C105.146 28.821 104.475 29 103.746 29C103.264 29 102.783 28.8958 102.301 28.6875C101.826 28.4792 101.409 28.2122 101.051 27.8867C100.699 28.2383 100.286 28.5117 99.8105 28.707C99.3418 28.9023 98.847 29 98.3262 29C97.8249 29 97.3236 28.8861 96.8223 28.6582C96.3275 28.4238 95.9043 28.1374 95.5527 27.7988C95.1686 28.1764 94.7259 28.4727 94.2246 28.6875C93.7233 28.8958 93.1927 29 92.6328 29H92.584ZM110.367 31.6562L114.381 29H113.209C112.597 28.9935 111.979 28.8014 111.354 28.4238C110.735 28.0462 110.224 27.5286 109.82 26.8711C109.417 26.2135 109.215 25.4941 109.215 24.7129C109.215 23.9382 109.407 23.2188 109.791 22.5547C110.182 21.8906 110.706 21.3665 111.363 20.9824C112.021 20.5918 112.737 20.3965 113.512 20.3965H117.828V29.8496L111.822 33.8438L110.367 31.6562ZM115.211 26.3828V23.0039H113.512C113.206 23.0039 112.923 23.082 112.662 23.2383C112.408 23.388 112.206 23.5931 112.057 23.8535C111.907 24.1074 111.832 24.3841 111.832 24.6836C111.832 24.9896 111.907 25.2728 112.057 25.5332C112.206 25.7936 112.408 26.002 112.662 26.1582C112.923 26.3079 113.206 26.3828 113.512 26.3828H115.211ZM119.771 16.168L122.398 15.5137V29H119.771V16.168ZM117.223 12.291H122.398V11.3633L124.938 12.291V14.3613H117.223V12.291ZM130.748 34.3809C129.967 34.3809 129.244 34.1855 128.58 33.7949C127.923 33.4108 127.398 32.8867 127.008 32.2227C126.624 31.5651 126.432 30.8457 126.432 30.0645V25.2207L129.059 24.5762V30.0645C129.059 30.3704 129.133 30.6536 129.283 30.9141C129.439 31.1745 129.645 31.3796 129.898 31.5293C130.159 31.6855 130.442 31.7637 130.748 31.7637H132.75C133.056 31.7637 133.336 31.6855 133.59 31.5293C133.85 31.3796 134.052 31.1745 134.195 30.9141C134.345 30.6536 134.42 30.3704 134.42 30.0645V21.2363L137.057 20.5723V30.0645C137.057 30.8457 136.861 31.5651 136.471 32.2227C136.087 32.8867 135.566 33.4108 134.908 33.7949C134.251 34.1855 133.531 34.3809 132.75 34.3809H130.748ZM129.684 20.1914H131.939V22.3203H129.684V20.1914ZM139.01 16.168L141.637 15.5137V29H139.01V16.168ZM142.418 31.6465L144.244 30.4258V21.2461L146.881 20.582V31.8223L143.873 33.834L142.418 31.6465ZM148.551 29C148.043 29 147.535 28.8047 147.027 28.4141C146.526 28.0234 146.113 27.5352 145.787 26.9492C145.468 26.3568 145.309 25.7936 145.309 25.2598L146.881 24.6934C146.881 24.9993 146.956 25.2826 147.105 25.543C147.255 25.7969 147.457 26.002 147.711 26.1582C147.965 26.3079 148.245 26.3828 148.551 26.3828L149.01 27.7012L148.551 29ZM148.082 27.7012L148.551 26.3828H152.154L152.623 27.7207L152.154 29H148.551L148.082 27.7012ZM151.695 27.7012L152.164 26.3828H155.768L156.236 27.7207L155.768 29H152.164L151.695 27.7012ZM155.309 27.7012L155.777 26.3828H159.381L159.85 27.7207L159.381 29H155.777L155.309 27.7012ZM159.322 29L158.922 27.7012L159.352 26.3828H159.391C159.697 26.3828 159.977 26.3079 160.23 26.1582C160.484 26.0085 160.686 25.8034 160.836 25.543C160.986 25.2826 161.061 24.9993 161.061 24.6934V21.2363L163.697 20.582V24.6934C163.697 25.4681 163.502 26.1875 163.111 26.8516C162.727 27.5091 162.203 28.0332 161.539 28.4238C160.882 28.8079 160.165 29 159.391 29H159.322ZM162.174 33.082H157.281V31.002H162.174V33.082ZM165.631 16.168L168.258 15.5137V29H165.631V16.168Z" fill="white"/>
<defs>
<clipPath id="clip0_2_431">
<rect width="45" height="45" fill="white" transform="translate(177 1)"/>
</clipPath>
</defs>
</svg>
